<svg xmlns="http://www.w3.org/2000/svg" width="120" height="24" viewBox="0 0 120 24">
  <path d="M0 12 Q10 4 20 12 Q30 20 40 12 Q50 4 60 12 Q70 20 80 12 Q90 4 100 12 Q110 20 120 12"
        fill="none" stroke="#3a6b34" stroke-width="2" stroke-linecap="round"/>
  <circle cx="10" cy="6" r="3" fill="#4a8c3f" opacity="0.85"/>
  <circle cx="8"  cy="4" r="2" fill="#5faa52" opacity="0.7"/>
  <circle cx="30" cy="18" r="3" fill="#4a8c3f" opacity="0.85"/>
  <circle cx="32" cy="20" r="2" fill="#5faa52" opacity="0.7"/>
  <circle cx="50" cy="6" r="3" fill="#4a8c3f" opacity="0.85"/>
  <circle cx="48" cy="4" r="2" fill="#5faa52" opacity="0.7"/>
  <circle cx="70" cy="18" r="3" fill="#4a8c3f" opacity="0.85"/>
  <circle cx="72" cy="20" r="2" fill="#5faa52" opacity="0.7"/>
  <circle cx="90" cy="6" r="3" fill="#4a8c3f" opacity="0.85"/>
  <circle cx="88" cy="4" r="2" fill="#5faa52" opacity="0.7"/>
  <circle cx="110" cy="18" r="3" fill="#4a8c3f" opacity="0.85"/>
  <circle cx="112" cy="20" r="2" fill="#5faa52" opacity="0.7"/>
</svg>
